<svg width="121" height="109" viewBox="0 0 121 109" fill="none" xmlns="http://www.w3.org/2000/svg">
<g id="Slider_Icons_Anderes.svg">
<g id="Group">
<g id="Group_2">
<path id="Vector" d="M54.697 65.016C53.682 65.016 52.873 64.654 52.291 63.939C51.721 63.237 51.488 62.387 51.6 61.412C51.829 59.39 52.412 57.54 53.334 55.915C54.249 54.299 55.785 52.537 57.897 50.678C59.926 48.854 61.487 47.089 62.532 45.437C63.553 43.826 64.069 42.055 64.069 40.173C64.069 37.669 63.242 35.645 61.54 33.988C59.856 32.35 57.504 31.52 54.548 31.52C52.449 31.52 50.716 31.929 49.397 32.735C48.058 33.552 46.938 34.624 46.068 35.921C45.619 36.606 45.006 37.081 44.25 37.33C43.904 37.444 43.556 37.501 43.215 37.501C42.806 37.501 42.398 37.418 42.004 37.255C41.115 36.876 40.577 36.205 40.4 35.258C40.231 34.352 40.389 33.529 40.869 32.814C42.337 30.635 44.221 28.872 46.47 27.573C48.729 26.27 51.445 25.609 54.542 25.609C59.545 25.609 63.461 27.05 66.182 29.893C68.897 32.73 70.273 36.143 70.273 40.038C70.273 42.471 69.734 44.75 68.669 46.812C67.615 48.853 65.994 50.901 63.85 52.899C61.719 54.864 60.246 56.491 59.47 57.734C58.713 58.948 58.258 60.329 58.117 61.836C58.004 62.742 57.628 63.498 56.996 64.098C56.353 64.707 55.581 65.016 54.697 65.016Z" fill="#F1F1F2"/>
<g id="Group_3">
<path id="Vector_2" d="M54.54 26.108C59.425 26.108 63.184 27.485 65.819 30.238C68.453 32.991 69.771 36.258 69.771 40.037C69.771 42.401 69.255 44.583 68.223 46.583C67.191 48.582 65.619 50.566 63.507 52.533C61.335 54.537 59.847 56.182 59.045 57.469C58.242 58.756 57.767 60.196 57.618 61.789C57.521 62.565 57.199 63.214 56.651 63.735C56.103 64.256 55.452 64.516 54.698 64.516C53.837 64.516 53.164 64.218 52.68 63.623C52.195 63.028 52.001 62.31 52.098 61.469C52.319 59.506 52.876 57.737 53.77 56.162C54.663 54.587 56.15 52.884 58.229 51.054C60.305 49.187 61.881 47.404 62.957 45.705C64.033 44.005 64.571 42.161 64.571 40.173C64.571 37.551 63.677 35.37 61.889 33.63C60.101 31.89 57.654 31.02 54.548 31.02C52.347 31.02 50.543 31.449 49.136 32.308C47.729 33.167 46.568 34.278 45.652 35.642C45.262 36.236 44.742 36.64 44.092 36.854C43.795 36.952 43.503 37 43.213 37C42.868 37 42.528 36.931 42.194 36.792C41.47 36.484 41.036 35.941 40.891 35.165C40.746 34.389 40.877 33.698 41.283 33.092C42.715 30.966 44.528 29.271 46.719 28.006C48.911 26.741 51.518 26.108 54.54 26.108ZM54.54 25.108C51.354 25.108 48.554 25.792 46.219 27.14C43.905 28.476 41.965 30.291 40.453 32.533C39.897 33.363 39.714 34.31 39.907 35.349C40.113 36.455 40.768 37.273 41.801 37.713C42.265 37.905 42.737 38.001 43.212 38.001C43.606 38.001 44.007 37.935 44.403 37.805C45.27 37.52 45.971 36.977 46.486 36.192C47.311 34.964 48.379 33.941 49.655 33.163C50.896 32.406 52.541 32.022 54.546 32.022C57.408 32.022 59.581 32.783 61.189 34.348C62.79 35.906 63.568 37.812 63.568 40.175C63.568 41.961 63.077 43.642 62.109 45.172C61.087 46.786 59.555 48.516 57.557 50.313C55.411 52.201 53.84 54.007 52.896 55.671C51.94 57.357 51.336 59.271 51.101 61.359C50.973 62.472 51.243 63.447 51.902 64.257C52.574 65.082 53.54 65.519 54.696 65.519C55.711 65.519 56.6 65.164 57.338 64.463C58.056 63.781 58.484 62.924 58.609 61.915C58.746 60.455 59.177 59.148 59.892 58C60.644 56.795 62.087 55.203 64.184 53.269C66.374 51.229 68.03 49.135 69.11 47.043C70.211 44.91 70.769 42.553 70.769 40.039C70.769 36.011 69.346 32.482 66.54 29.549C63.724 26.601 59.686 25.108 54.54 25.108Z" fill="#072543"/>
</g>
</g>
<g id="Group_4">
<path id="Vector_3" d="M54.531 83.572C53.269 83.572 52.172 83.11 51.268 82.199C50.365 81.289 49.907 80.189 49.907 78.929C49.907 77.667 50.369 76.57 51.28 75.666C52.19 74.763 53.29 74.305 54.55 74.305C55.812 74.305 56.909 74.767 57.813 75.678C58.716 76.588 59.174 77.688 59.174 78.948C59.174 80.209 58.712 81.307 57.802 82.211C56.89 83.114 55.79 83.572 54.531 83.572Z" fill="#F1F1F2"/>
<g id="Group_5">
<path id="Vector_4" d="M54.55 74.805C55.678 74.805 56.648 75.213 57.458 76.03C58.269 76.847 58.674 77.819 58.674 78.948C58.674 80.076 58.266 81.046 57.449 81.856C56.632 82.666 55.66 83.072 54.531 83.072C53.403 83.072 52.433 82.664 51.623 81.847C50.812 81.03 50.407 80.058 50.407 78.929C50.407 77.801 50.815 76.831 51.632 76.021C52.449 75.21 53.422 74.805 54.55 74.805ZM54.55 73.805C53.154 73.805 51.935 74.312 50.928 75.311C49.919 76.312 49.407 77.53 49.407 78.929C49.407 80.325 49.914 81.544 50.913 82.551C51.914 83.56 53.132 84.072 54.531 84.072C55.927 84.072 57.146 83.565 58.153 82.566C59.162 81.565 59.674 80.347 59.674 78.948C59.674 77.552 59.167 76.333 58.168 75.326C57.166 74.317 55.949 73.805 54.55 73.805Z" fill="#072543"/>
</g>
</g>
<g id="Group_6">
<path id="Vector_5" d="M28.862 60.053C28.284 60.053 27.801 59.835 27.466 59.422C27.136 59.017 27.001 58.529 27.066 57.972C27.183 56.93 27.485 55.973 27.963 55.13C28.436 54.297 29.222 53.394 30.298 52.447C31.293 51.552 32.058 50.687 32.569 49.88C33.053 49.115 33.299 48.275 33.299 47.382C33.299 46.201 32.91 45.248 32.11 44.469C31.305 43.686 30.218 43.305 28.788 43.305C27.786 43.305 26.964 43.497 26.344 43.876C25.706 44.265 25.172 44.776 24.756 45.395C24.5 45.784 24.15 46.056 23.716 46.197C23.52 46.262 23.32 46.295 23.122 46.295C22.884 46.295 22.648 46.247 22.421 46.153C21.899 45.931 21.571 45.523 21.469 44.969C21.372 44.45 21.464 43.977 21.741 43.563C22.497 42.44 23.467 41.533 24.624 40.865C25.792 40.191 27.191 39.849 28.785 39.849C31.357 39.849 33.377 40.596 34.786 42.069C36.189 43.536 36.9 45.301 36.9 47.314C36.9 48.572 36.621 49.75 36.07 50.816C35.531 51.861 34.703 52.908 33.609 53.927C32.558 54.896 31.837 55.692 31.461 56.294C31.105 56.867 30.889 57.521 30.821 58.236C30.758 58.755 30.544 59.183 30.184 59.525C29.813 59.876 29.369 60.053 28.862 60.053Z" fill="#F1F1F2"/>
<path id="Vector_6" d="M28.784 40.349C31.226 40.349 33.106 41.037 34.423 42.414C35.74 43.791 36.399 45.424 36.399 47.313C36.399 48.495 36.141 49.586 35.625 50.586C35.109 51.586 34.323 52.577 33.267 53.561C32.181 54.563 31.437 55.386 31.036 56.029C30.635 56.673 30.397 57.393 30.322 58.189C30.274 58.577 30.113 58.902 29.838 59.162C29.564 59.422 29.238 59.553 28.861 59.553C28.431 59.553 28.094 59.404 27.852 59.106C27.61 58.808 27.513 58.449 27.561 58.029C27.672 57.047 27.95 56.163 28.397 55.375C28.844 54.588 29.587 53.736 30.627 52.821C31.665 51.888 32.453 50.996 32.991 50.146C33.529 49.296 33.798 48.374 33.798 47.38C33.798 46.069 33.351 44.978 32.457 44.108C31.563 43.238 30.34 42.803 28.787 42.803C27.686 42.803 26.784 43.018 26.081 43.447C25.378 43.876 24.797 44.432 24.339 45.114C24.144 45.411 23.884 45.613 23.559 45.72C23.411 45.769 23.264 45.793 23.12 45.793C22.948 45.793 22.778 45.758 22.61 45.689C22.248 45.535 22.031 45.264 21.958 44.875C21.886 44.487 21.951 44.141 22.154 43.838C22.87 42.775 23.776 41.927 24.872 41.295C25.969 40.665 27.273 40.349 28.784 40.349ZM28.784 39.349C27.102 39.349 25.618 39.713 24.373 40.432C23.149 41.138 22.124 42.097 21.325 43.282C20.976 43.803 20.855 44.418 20.975 45.061C21.108 45.776 21.55 46.327 22.218 46.611C22.516 46.734 22.816 46.795 23.12 46.795C23.37 46.795 23.623 46.754 23.872 46.672C24.416 46.493 24.854 46.154 25.175 45.665C25.549 45.108 26.018 44.659 26.602 44.303C27.143 43.973 27.878 43.806 28.787 43.806C30.081 43.806 31.054 44.14 31.76 44.828C32.459 45.508 32.798 46.344 32.798 47.383C32.798 48.191 32.585 48.921 32.146 49.614C31.659 50.383 30.923 51.212 29.958 52.08C28.831 53.071 28.034 53.991 27.527 54.884C27.016 55.786 26.693 56.807 26.567 57.919C26.488 58.603 26.664 59.234 27.076 59.739C27.51 60.272 28.127 60.554 28.861 60.554C29.492 60.554 30.068 60.324 30.526 59.888C30.971 59.465 31.236 58.935 31.313 58.313C31.377 57.637 31.562 57.073 31.883 56.559C32.235 55.994 32.928 55.233 33.944 54.297C35.083 53.236 35.946 52.143 36.513 51.046C37.1 49.908 37.398 48.652 37.398 47.315C37.398 45.168 36.64 43.287 35.145 41.724C33.639 40.148 31.498 39.349 28.784 39.349Z" fill="#072543"/>
</g>
<g id="Group_7">
<path id="Vector_7" d="M28.779 69.331C28.08 69.331 27.471 69.075 26.97 68.57C26.47 68.066 26.216 67.457 26.216 66.759C26.216 66.06 26.472 65.451 26.977 64.95C27.481 64.45 28.09 64.197 28.789 64.197C29.489 64.197 30.098 64.453 30.599 64.958C31.098 65.461 31.351 66.07 31.351 66.769C31.351 67.468 31.095 68.077 30.591 68.578C30.088 69.078 29.478 69.331 28.779 69.331Z" fill="#F1F1F2"/>
<g id="Group_8">
<path id="Vector_8" d="M28.788 64.698C29.352 64.698 29.837 64.902 30.242 65.311C30.647 65.719 30.85 66.206 30.85 66.77C30.85 67.334 30.646 67.819 30.237 68.224C29.829 68.629 29.342 68.832 28.778 68.832C28.214 68.832 27.729 68.628 27.324 68.219C26.919 67.811 26.716 67.324 26.716 66.76C26.716 66.196 26.92 65.711 27.329 65.306C27.738 64.901 28.224 64.698 28.788 64.698ZM28.788 63.698C27.965 63.698 27.217 64.009 26.625 64.596C26.031 65.186 25.717 65.934 25.717 66.76C25.717 67.583 26.028 68.331 26.615 68.923C27.205 69.517 27.953 69.831 28.779 69.831C29.602 69.831 30.35 69.52 30.942 68.933C31.536 68.343 31.85 67.595 31.85 66.769C31.85 65.946 31.539 65.198 30.952 64.606C30.363 64.012 29.615 63.698 28.788 63.698Z" fill="#072543"/>
</g>
</g>
<g id="Group_9">
<path id="Vector_9" d="M87.264 62.535C86.463 62.535 85.824 62.247 85.363 61.681C84.913 61.129 84.728 60.46 84.816 59.693C84.989 58.161 85.432 56.758 86.132 55.524C86.825 54.3 87.986 52.968 89.581 51.564C91.092 50.205 92.255 48.89 93.035 47.66C93.786 46.472 94.168 45.165 94.168 43.779C94.168 41.936 93.56 40.448 92.308 39.23C91.07 38.025 89.335 37.414 87.152 37.414C85.603 37.414 84.325 37.714 83.353 38.307C82.365 38.911 81.538 39.702 80.895 40.66C80.542 41.197 80.061 41.57 79.466 41.766C79.194 41.855 78.92 41.901 78.651 41.901C78.328 41.901 78.005 41.836 77.695 41.707C76.998 41.411 76.557 40.861 76.418 40.117C76.285 39.403 76.409 38.756 76.788 38.191C77.9 36.54 79.327 35.205 81.03 34.222C82.743 33.233 84.801 32.732 87.146 32.732C90.934 32.732 93.902 33.826 95.966 35.983C98.025 38.134 99.069 40.723 99.069 43.678C99.069 45.524 98.66 47.252 97.853 48.816C97.055 50.361 95.831 51.909 94.212 53.415C92.62 54.883 91.524 56.095 90.949 57.017C90.39 57.911 90.055 58.927 89.952 60.039C89.863 60.751 89.568 61.344 89.073 61.814C88.568 62.291 87.96 62.535 87.264 62.535Z" fill="#F1F1F2"/>
<path id="Vector_10" d="M87.147 33.228C90.811 33.228 93.63 34.261 95.606 36.326C97.582 38.391 98.57 40.841 98.57 43.675C98.57 45.448 98.183 47.085 97.409 48.584C96.635 50.084 95.456 51.571 93.872 53.046C92.243 54.549 91.127 55.783 90.525 56.748C89.923 57.713 89.566 58.793 89.455 59.988C89.383 60.57 89.141 61.057 88.73 61.448C88.319 61.839 87.83 62.034 87.265 62.034C86.619 62.034 86.115 61.811 85.751 61.364C85.387 60.917 85.242 60.379 85.314 59.748C85.48 58.276 85.898 56.949 86.568 55.768C87.238 54.587 88.353 53.31 89.913 51.937C91.47 50.537 92.652 49.2 93.459 47.925C94.266 46.65 94.67 45.267 94.67 43.776C94.67 41.809 94 40.174 92.659 38.869C91.318 37.564 89.483 36.912 87.154 36.912C85.503 36.912 84.15 37.234 83.095 37.878C82.04 38.522 81.169 39.356 80.482 40.379C80.19 40.825 79.8 41.128 79.312 41.288C79.09 41.361 78.87 41.398 78.653 41.398C78.394 41.398 78.14 41.346 77.888 41.242C77.345 41.011 77.019 40.604 76.911 40.022C76.802 39.44 76.9 38.921 77.205 38.467C78.279 36.873 79.638 35.601 81.282 34.652C82.924 33.703 84.88 33.228 87.147 33.228ZM87.147 32.228C84.713 32.228 82.571 32.752 80.781 33.785C79.012 34.806 77.529 36.193 76.374 37.907C75.925 38.577 75.771 39.37 75.926 40.204C76.097 41.12 76.639 41.797 77.495 42.161C77.876 42.319 78.262 42.397 78.651 42.397C78.973 42.397 79.3 42.343 79.623 42.237C80.328 42.005 80.898 41.564 81.316 40.927C81.913 40.038 82.688 39.296 83.614 38.731C84.505 38.187 85.695 37.912 87.152 37.912C89.23 37.912 90.803 38.46 91.96 39.586C93.11 40.705 93.669 42.076 93.669 43.777C93.669 45.087 93.324 46.269 92.613 47.391C91.859 48.582 90.725 49.862 89.243 51.194C87.615 52.627 86.419 54.003 85.697 55.275C84.963 56.569 84.5 58.036 84.319 59.637C84.217 60.528 84.443 61.344 84.974 61.996C85.527 62.675 86.319 63.034 87.263 63.034C88.079 63.034 88.824 62.736 89.417 62.173C89.999 61.621 90.345 60.927 90.446 60.112C90.546 59.049 90.856 58.105 91.373 57.278C91.925 56.393 92.993 55.217 94.549 53.782C96.214 52.232 97.473 50.638 98.296 49.043C99.14 47.407 99.568 45.601 99.568 43.675C99.568 40.587 98.477 37.882 96.327 35.634C94.166 33.375 91.076 32.228 87.147 32.228Z" fill="#072543"/>
</g>
<g id="Group_10">
<path id="Vector_11" d="M87.139 76.451C86.159 76.451 85.305 76.092 84.603 75.384C83.902 74.678 83.546 73.823 83.546 72.844C83.546 71.863 83.905 71.01 84.613 70.308C85.319 69.607 86.174 69.251 87.152 69.251C88.131 69.251 88.985 69.61 89.688 70.317C90.39 71.025 90.746 71.88 90.746 72.858C90.746 73.838 90.388 74.691 89.68 75.394C88.972 76.096 88.118 76.451 87.139 76.451Z" fill="#F1F1F2"/>
<g id="Group_11">
<path id="Vector_12" d="M87.154 69.751C88 69.751 88.727 70.057 89.335 70.67C89.943 71.283 90.247 72.012 90.247 72.858C90.247 73.704 89.941 74.431 89.328 75.039C88.715 75.647 87.986 75.951 87.14 75.951C86.294 75.951 85.567 75.645 84.959 75.032C84.351 74.419 84.047 73.69 84.047 72.844C84.047 71.998 84.353 71.271 84.966 70.663C85.578 70.055 86.307 69.751 87.154 69.751ZM87.154 68.751C86.038 68.751 85.065 69.155 84.261 69.953C83.455 70.753 83.047 71.725 83.047 72.844C83.047 73.96 83.451 74.933 84.249 75.737C85.049 76.543 86.021 76.952 87.14 76.952C88.256 76.952 89.229 76.548 90.033 75.75C90.839 74.95 91.248 73.978 91.248 72.859C91.248 71.743 90.844 70.77 90.046 69.966C89.245 69.16 88.272 68.751 87.154 68.751Z" fill="#072543"/>
</g>
</g>
</g>
</g>
</svg>
